<?xml version="1.0" encoding="UTF-8" standalone="no"?><!DOCTYPE svg PUBLIC "-//W3C//DTD SVG 1.1//EN" "http://www.w3.org/Graphics/SVG/1.1/DTD/svg11.dtd"><svg width="100%" height="100%" viewBox="0 0 1701 567" version="1.1" xmlns="http://www.w3.org/2000/svg" xmlns:xlink="http://www.w3.org/1999/xlink" xml:space="preserve" xmlns:serif="http://www.serif.com/" style="fill-rule:evenodd;clip-rule:evenodd;stroke-linecap:round;stroke-linejoin:round;stroke-miterlimit:1.5;"><rect x="201.467" y="0" width="533.591" height="566.929" style="fill:#c8c8c8;fill-opacity:0.2;"/><rect x="1040.93" y="0" width="533.591" height="566.929" style="fill:#c8c8c8;fill-opacity:0.2;"/><g><circle cx="271.005" cy="306.686" r="7.087"/><circle cx="667.998" cy="306.686" r="7.087"/></g><g><circle cx="244.395" cy="394.781" r="7.087"/><circle cx="297.614" cy="394.781" r="7.087"/></g><path d="M222.702,312.814c-1.142,0 -2.174,-0.248 -3.096,-0.744c-0.923,-0.496 -1.648,-1.184 -2.176,-2.064c-0.528,-0.88 -0.792,-1.874 -0.792,-2.984c-0,-1.109 0.264,-2.104 0.792,-2.984c0.528,-0.88 1.253,-1.568 2.176,-2.064c0.922,-0.496 1.96,-0.744 3.112,-0.744c0.97,0 1.848,0.171 2.632,0.512c0.784,0.342 1.442,0.832 1.976,1.472l-1.664,1.536c-0.758,-0.874 -1.696,-1.312 -2.816,-1.312c-0.694,0 -1.312,0.152 -1.856,0.456c-0.544,0.304 -0.968,0.728 -1.272,1.272c-0.304,0.544 -0.456,1.163 -0.456,1.856c-0,0.694 0.152,1.312 0.456,1.856c0.304,0.544 0.728,0.968 1.272,1.272c0.544,0.304 1.162,0.456 1.856,0.456c1.12,0 2.058,-0.442 2.816,-1.328l1.664,1.536c-0.534,0.651 -1.195,1.147 -1.984,1.488c-0.79,0.342 -1.67,0.512 -2.64,0.512Z" style="fill-rule:nonzero;"/><path d="M234.254,312.814c-1.163,0 -2.211,-0.25 -3.144,-0.752c-0.934,-0.501 -1.664,-1.192 -2.192,-2.072c-0.528,-0.88 -0.792,-1.869 -0.792,-2.968c-0,-1.098 0.264,-2.088 0.792,-2.968c0.528,-0.88 1.258,-1.57 2.192,-2.072c0.933,-0.501 1.981,-0.752 3.144,-0.752c1.162,0 2.208,0.251 3.136,0.752c0.928,0.502 1.658,1.192 2.192,2.072c0.533,0.88 0.8,1.87 0.8,2.968c-0,1.099 -0.267,2.088 -0.8,2.968c-0.534,0.88 -1.264,1.571 -2.192,2.072c-0.928,0.502 -1.974,0.752 -3.136,0.752Zm-0,-2.208c0.661,0 1.258,-0.152 1.792,-0.456c0.533,-0.304 0.952,-0.728 1.256,-1.272c0.304,-0.544 0.456,-1.162 0.456,-1.856c-0,-0.693 -0.152,-1.312 -0.456,-1.856c-0.304,-0.544 -0.723,-0.968 -1.256,-1.272c-0.534,-0.304 -1.131,-0.456 -1.792,-0.456c-0.662,0 -1.259,0.152 -1.792,0.456c-0.534,0.304 -0.952,0.728 -1.256,1.272c-0.304,0.544 -0.456,1.163 -0.456,1.856c-0,0.694 0.152,1.312 0.456,1.856c0.304,0.544 0.722,0.968 1.256,1.272c0.533,0.304 1.13,0.456 1.792,0.456Z" style="fill-rule:nonzero;"/><path d="M252.526,312.622l-0.016,-6.72l-3.296,5.536l-1.168,0l-3.28,-5.392l-0,6.576l-2.432,0l-0,-11.2l2.144,0l4.192,6.96l4.128,-6.96l2.128,0l0.032,11.2l-2.432,0Z" style="fill-rule:nonzero;"/><path d="M132.279,231.932c0.992,-0 1.853,0.165 2.584,0.496c0.731,0.331 1.293,0.8 1.688,1.408c0.395,0.608 0.592,1.328 0.592,2.16c0,0.821 -0.197,1.539 -0.592,2.152c-0.395,0.613 -0.957,1.083 -1.688,1.408c-0.731,0.325 -1.592,0.488 -2.584,0.488l-2.256,-0l0,3.088l-2.592,-0l0,-11.2l4.848,-0Zm-0.144,6c0.779,-0 1.371,-0.168 1.776,-0.504c0.405,-0.336 0.608,-0.813 0.608,-1.432c0,-0.629 -0.203,-1.112 -0.608,-1.448c-0.405,-0.336 -0.997,-0.504 -1.776,-0.504l-2.112,-0l0,3.888l2.112,-0Z" style="fill-rule:nonzero;"/><path d="M142.887,243.26c-0.907,-0 -1.72,-0.189 -2.44,-0.568c-0.72,-0.379 -1.283,-0.904 -1.688,-1.576c-0.405,-0.672 -0.608,-1.435 -0.608,-2.288c0,-0.853 0.203,-1.616 0.608,-2.288c0.405,-0.672 0.968,-1.197 1.688,-1.576c0.72,-0.379 1.533,-0.568 2.44,-0.568c0.907,-0 1.717,0.189 2.432,0.568c0.715,0.379 1.275,0.904 1.68,1.576c0.405,0.672 0.608,1.435 0.608,2.288c0,0.853 -0.203,1.616 -0.608,2.288c-0.405,0.672 -0.965,1.197 -1.68,1.576c-0.715,0.379 -1.525,0.568 -2.432,0.568Zm0,-2.048c0.64,-0 1.165,-0.216 1.576,-0.648c0.411,-0.432 0.616,-1.011 0.616,-1.736c0,-0.725 -0.205,-1.304 -0.616,-1.736c-0.411,-0.432 -0.936,-0.648 -1.576,-0.648c-0.64,-0 -1.168,0.216 -1.584,0.648c-0.416,0.432 -0.624,1.011 -0.624,1.736c0,0.725 0.208,1.304 0.624,1.736c0.416,0.432 0.944,0.648 1.584,0.648Z" style="fill-rule:nonzero;"/><path d="M162.855,234.524l-3.12,8.608l-2.4,-0l-1.936,-5.344l-2,5.344l-2.4,-0l-3.104,-8.608l2.352,-0l2.032,5.824l2.112,-5.824l2.112,-0l2.048,5.824l2.096,-5.824l2.208,-0Z" style="fill-rule:nonzero;"/><path d="M172.215,238.86c0,0.032 -0.016,0.256 -0.048,0.672l-6.512,-0c0.117,0.533 0.395,0.955 0.832,1.264c0.437,0.309 0.981,0.464 1.632,0.464c0.448,-0 0.845,-0.067 1.192,-0.2c0.347,-0.133 0.669,-0.344 0.968,-0.632l1.328,1.44c-0.811,0.928 -1.995,1.392 -3.552,1.392c-0.971,-0 -1.829,-0.189 -2.576,-0.568c-0.747,-0.379 -1.323,-0.904 -1.728,-1.576c-0.405,-0.672 -0.608,-1.435 -0.608,-2.288c0,-0.843 0.2,-1.603 0.6,-2.28c0.4,-0.677 0.949,-1.205 1.648,-1.584c0.699,-0.379 1.48,-0.568 2.344,-0.568c0.843,-0 1.605,0.181 2.288,0.544c0.683,0.363 1.219,0.883 1.608,1.56c0.389,0.677 0.584,1.464 0.584,2.36Zm-4.464,-2.576c-0.565,-0 -1.04,0.16 -1.424,0.48c-0.384,0.32 -0.619,0.757 -0.704,1.312l4.24,-0c-0.085,-0.544 -0.32,-0.979 -0.704,-1.304c-0.384,-0.325 -0.853,-0.488 -1.408,-0.488Z" style="fill-rule:nonzero;"/><path d="M176.263,235.66c0.299,-0.416 0.701,-0.731 1.208,-0.944c0.507,-0.213 1.091,-0.32 1.752,-0.32l0,2.304c-0.277,-0.021 -0.464,-0.032 -0.56,-0.032c-0.715,-0 -1.275,0.2 -1.68,0.6c-0.405,0.4 -0.608,1 -0.608,1.8l0,4.064l-2.496,-0l0,-8.608l2.384,-0l0,1.136Z" style="fill-rule:nonzero;"/><path d="M330.564,90.564l4.752,-0l0,13.032l8.016,-0l0,3.768l-12.768,-0l0,-16.8Z" style="fill:#f6b141;fill-rule:nonzero;"/><path d="M344.988,94.356l4.56,-0l0,13.008l-4.56,-0l0,-13.008Zm2.28,-1.44c-0.832,-0 -1.504,-0.232 -2.016,-0.696c-0.512,-0.464 -0.768,-1.04 -0.768,-1.728c0,-0.688 0.256,-1.264 0.768,-1.728c0.512,-0.464 1.184,-0.696 2.016,-0.696c0.832,-0 1.504,0.22 2.016,0.66c0.512,0.44 0.768,1.004 0.768,1.692c0,0.72 -0.256,1.316 -0.768,1.788c-0.512,0.472 -1.184,0.708 -2.016,0.708Z" style="fill:#f6b141;fill-rule:nonzero;"/><path d="M366.492,94.356l0,10.632c0,2.416 -0.656,4.228 -1.968,5.436c-1.312,1.208 -3.2,1.812 -5.664,1.812c-1.28,-0 -2.48,-0.144 -3.6,-0.432c-1.12,-0.288 -2.072,-0.712 -2.856,-1.272l1.656,-3.192c0.528,0.432 1.196,0.772 2.004,1.02c0.808,0.248 1.604,0.372 2.388,0.372c1.2,-0 2.08,-0.264 2.64,-0.792c0.56,-0.528 0.84,-1.312 0.84,-2.352l0,-0.432c-0.88,1.024 -2.168,1.536 -3.864,1.536c-1.152,-0 -2.216,-0.26 -3.192,-0.78c-0.976,-0.52 -1.752,-1.256 -2.328,-2.208c-0.576,-0.952 -0.864,-2.052 -0.864,-3.3c0,-1.232 0.288,-2.324 0.864,-3.276c0.576,-0.952 1.352,-1.688 2.328,-2.208c0.976,-0.52 2.04,-0.78 3.192,-0.78c1.856,-0 3.216,0.6 4.08,1.8l0,-1.584l4.344,-0Zm-7.344,8.712c0.816,-0 1.492,-0.248 2.028,-0.744c0.536,-0.496 0.804,-1.136 0.804,-1.92c0,-0.784 -0.264,-1.42 -0.792,-1.908c-0.528,-0.488 -1.208,-0.732 -2.04,-0.732c-0.832,-0 -1.516,0.244 -2.052,0.732c-0.536,0.488 -0.804,1.124 -0.804,1.908c0,0.784 0.272,1.424 0.816,1.92c0.544,0.496 1.224,0.744 2.04,0.744Z" style="fill:#f6b141;fill-rule:nonzero;"/><path d="M377.892,94.14c1.616,-0 2.916,0.48 3.9,1.44c0.984,0.96 1.476,2.408 1.476,4.344l0,7.44l-4.56,-0l0,-6.696c0,-1.776 -0.712,-2.664 -2.136,-2.664c-0.784,-0 -1.412,0.256 -1.884,0.768c-0.472,0.512 -0.708,1.28 -0.708,2.304l0,6.288l-4.56,-0l0,-17.808l4.56,-0l0,6c0.496,-0.464 1.08,-0.816 1.752,-1.056c0.672,-0.24 1.392,-0.36 2.16,-0.36Z" style="fill:#f6b141;fill-rule:nonzero;"/><path d="M395.1,106.836c-0.384,0.24 -0.852,0.424 -1.404,0.552c-0.552,0.128 -1.14,0.192 -1.764,0.192c-1.696,-0 -3,-0.416 -3.912,-1.248c-0.912,-0.832 -1.368,-2.072 -1.368,-3.72l0,-4.368l-1.896,-0l0,-3.408l1.896,-0l0,-3.384l4.56,-0l0,3.384l2.976,-0l0,3.408l-2.976,-0l0,4.32c0,0.464 0.124,0.828 0.372,1.092c0.248,0.264 0.58,0.396 0.996,0.396c0.528,-0 0.992,-0.136 1.392,-0.408l1.128,3.192Z" style="fill:#f6b141;fill-rule:nonzero;"/><path d="M410.388,90.564l0,16.8l-4.752,-0l0,-13.128l-3.12,-0l0,-3.672l7.872,-0Z" style="fill:#f6b141;fill-rule:nonzero;"/><path d="M326.112,353.391c-1.36,0 -2.68,-0.168 -3.96,-0.504c-1.28,-0.336 -2.32,-0.784 -3.12,-1.344l1.56,-3.504c0.752,0.496 1.624,0.896 2.616,1.2c0.992,0.304 1.968,0.456 2.928,0.456c1.824,0 2.736,-0.456 2.736,-1.368c0,-0.48 -0.26,-0.836 -0.78,-1.068c-0.52,-0.232 -1.356,-0.476 -2.508,-0.732c-1.264,-0.272 -2.32,-0.564 -3.168,-0.876c-0.848,-0.312 -1.576,-0.812 -2.184,-1.5c-0.608,-0.688 -0.912,-1.616 -0.912,-2.784c0,-1.024 0.28,-1.948 0.84,-2.772c0.56,-0.824 1.396,-1.476 2.508,-1.956c1.112,-0.48 2.476,-0.72 4.092,-0.72c1.104,0 2.192,0.124 3.264,0.372c1.072,0.248 2.016,0.612 2.832,1.092l-1.464,3.528c-1.6,-0.864 -3.152,-1.296 -4.656,-1.296c-0.944,0 -1.632,0.14 -2.064,0.42c-0.432,0.28 -0.648,0.644 -0.648,1.092c0,0.448 0.256,0.784 0.768,1.008c0.512,0.224 1.336,0.456 2.472,0.696c1.28,0.272 2.34,0.564 3.18,0.876c0.84,0.312 1.568,0.808 2.184,1.488c0.616,0.68 0.924,1.604 0.924,2.772c0,1.008 -0.28,1.92 -0.84,2.736c-0.56,0.816 -1.4,1.468 -2.52,1.956c-1.12,0.488 -2.48,0.732 -4.08,0.732Z" style="fill:#f6b141;fill-rule:nonzero;"/><path d="M356.832,340.047l-4.632,13.008l-4.416,0l-2.448,-7.08l-2.544,7.08l-4.416,0l-4.632,-13.008l4.32,0l2.664,7.872l2.76,-7.872l3.888,0l2.688,7.944l2.76,-7.944l4.008,0Z" style="fill:#f6b141;fill-rule:nonzero;"/><path d="M358.224,340.047l4.56,0l0,13.008l-4.56,0l0,-13.008Zm2.28,-1.44c-0.832,0 -1.504,-0.232 -2.016,-0.696c-0.512,-0.464 -0.768,-1.04 -0.768,-1.728c0,-0.688 0.256,-1.264 0.768,-1.728c0.512,-0.464 1.184,-0.696 2.016,-0.696c0.832,0 1.504,0.22 2.016,0.66c0.512,0.44 0.768,1.004 0.768,1.692c0,0.72 -0.256,1.316 -0.768,1.788c-0.512,0.472 -1.184,0.708 -2.016,0.708Z" style="fill:#f6b141;fill-rule:nonzero;"/><path d="M374.712,352.527c-0.384,0.24 -0.852,0.424 -1.404,0.552c-0.552,0.128 -1.14,0.192 -1.764,0.192c-1.696,0 -3,-0.416 -3.912,-1.248c-0.912,-0.832 -1.368,-2.072 -1.368,-3.72l0,-4.368l-1.896,0l0,-3.408l1.896,0l0,-3.384l4.56,0l0,3.384l2.976,0l0,3.408l-2.976,0l0,4.32c0,0.464 0.124,0.828 0.372,1.092c0.248,0.264 0.58,0.396 0.996,0.396c0.528,0 0.992,-0.136 1.392,-0.408l1.128,3.192Z" style="fill:#f6b141;fill-rule:nonzero;"/><path d="M382.728,353.271c-1.44,0 -2.728,-0.288 -3.864,-0.864c-1.136,-0.576 -2.02,-1.376 -2.652,-2.4c-0.632,-1.024 -0.948,-2.184 -0.948,-3.48c0,-1.296 0.316,-2.452 0.948,-3.468c0.632,-1.016 1.516,-1.808 2.652,-2.376c1.136,-0.568 2.424,-0.852 3.864,-0.852c1.472,0 2.744,0.316 3.816,0.948c1.072,0.632 1.832,1.508 2.28,2.628l-3.528,1.8c-0.592,-1.168 -1.456,-1.752 -2.592,-1.752c-0.816,0 -1.492,0.272 -2.028,0.816c-0.536,0.544 -0.804,1.296 -0.804,2.256c0,0.976 0.268,1.74 0.804,2.292c0.536,0.552 1.212,0.828 2.028,0.828c1.136,0 2,-0.584 2.592,-1.752l3.528,1.8c-0.448,1.12 -1.208,1.996 -2.28,2.628c-1.072,0.632 -2.344,0.948 -3.816,0.948Z" style="fill:#f6b141;fill-rule:nonzero;"/><path d="M398.976,339.831c1.616,0 2.916,0.48 3.9,1.44c0.984,0.96 1.476,2.408 1.476,4.344l0,7.44l-4.56,0l0,-6.696c0,-1.776 -0.712,-2.664 -2.136,-2.664c-0.784,0 -1.412,0.256 -1.884,0.768c-0.472,0.512 -0.708,1.28 -0.708,2.304l0,6.288l-4.56,0l0,-17.808l4.56,0l0,6c0.496,-0.464 1.08,-0.816 1.752,-1.056c0.672,-0.24 1.392,-0.36 2.16,-0.36Z" style="fill:#f6b141;fill-rule:nonzero;"/><path d="M420.744,336.255l0,16.8l-4.752,0l0,-13.128l-3.12,0l0,-3.672l7.872,0Z" style="fill:#f6b141;fill-rule:nonzero;"/><path d="M521.811,353.391c-1.36,0 -2.68,-0.168 -3.96,-0.504c-1.28,-0.336 -2.32,-0.784 -3.12,-1.344l1.56,-3.504c0.752,0.496 1.624,0.896 2.616,1.2c0.992,0.304 1.968,0.456 2.928,0.456c1.824,0 2.736,-0.456 2.736,-1.368c-0,-0.48 -0.26,-0.836 -0.78,-1.068c-0.52,-0.232 -1.356,-0.476 -2.508,-0.732c-1.264,-0.272 -2.32,-0.564 -3.168,-0.876c-0.848,-0.312 -1.576,-0.812 -2.184,-1.5c-0.608,-0.688 -0.912,-1.616 -0.912,-2.784c-0,-1.024 0.28,-1.948 0.84,-2.772c0.56,-0.824 1.396,-1.476 2.508,-1.956c1.112,-0.48 2.476,-0.72 4.092,-0.72c1.104,0 2.192,0.124 3.264,0.372c1.072,0.248 2.016,0.612 2.832,1.092l-1.464,3.528c-1.6,-0.864 -3.152,-1.296 -4.656,-1.296c-0.944,0 -1.632,0.14 -2.064,0.42c-0.432,0.28 -0.648,0.644 -0.648,1.092c-0,0.448 0.256,0.784 0.768,1.008c0.512,0.224 1.336,0.456 2.472,0.696c1.28,0.272 2.34,0.564 3.18,0.876c0.84,0.312 1.568,0.808 2.184,1.488c0.616,0.68 0.924,1.604 0.924,2.772c-0,1.008 -0.28,1.92 -0.84,2.736c-0.56,0.816 -1.4,1.468 -2.52,1.956c-1.12,0.488 -2.48,0.732 -4.08,0.732Z" style="fill:#f6b141;fill-rule:nonzero;"/><path d="M552.531,340.047l-4.632,13.008l-4.416,0l-2.448,-7.08l-2.544,7.08l-4.416,0l-4.632,-13.008l4.32,0l2.664,7.872l2.76,-7.872l3.888,0l2.688,7.944l2.76,-7.944l4.008,0Z" style="fill:#f6b141;fill-rule:nonzero;"/><path d="M553.923,340.047l4.56,0l-0,13.008l-4.56,0l-0,-13.008Zm2.28,-1.44c-0.832,0 -1.504,-0.232 -2.016,-0.696c-0.512,-0.464 -0.768,-1.04 -0.768,-1.728c-0,-0.688 0.256,-1.264 0.768,-1.728c0.512,-0.464 1.184,-0.696 2.016,-0.696c0.832,0 1.504,0.22 2.016,0.66c0.512,0.44 0.768,1.004 0.768,1.692c-0,0.72 -0.256,1.316 -0.768,1.788c-0.512,0.472 -1.184,0.708 -2.016,0.708Z" style="fill:#f6b141;fill-rule:nonzero;"/><path d="M570.411,352.527c-0.384,0.24 -0.852,0.424 -1.404,0.552c-0.552,0.128 -1.14,0.192 -1.764,0.192c-1.696,0 -3,-0.416 -3.912,-1.248c-0.912,-0.832 -1.368,-2.072 -1.368,-3.72l-0,-4.368l-1.896,0l-0,-3.408l1.896,0l-0,-3.384l4.56,0l-0,3.384l2.976,0l-0,3.408l-2.976,0l-0,4.32c-0,0.464 0.124,0.828 0.372,1.092c0.248,0.264 0.58,0.396 0.996,0.396c0.528,0 0.992,-0.136 1.392,-0.408l1.128,3.192Z" style="fill:#f6b141;fill-rule:nonzero;"/><path d="M578.427,353.271c-1.44,0 -2.728,-0.288 -3.864,-0.864c-1.136,-0.576 -2.02,-1.376 -2.652,-2.4c-0.632,-1.024 -0.948,-2.184 -0.948,-3.48c-0,-1.296 0.316,-2.452 0.948,-3.468c0.632,-1.016 1.516,-1.808 2.652,-2.376c1.136,-0.568 2.424,-0.852 3.864,-0.852c1.472,0 2.744,0.316 3.816,0.948c1.072,0.632 1.832,1.508 2.28,2.628l-3.528,1.8c-0.592,-1.168 -1.456,-1.752 -2.592,-1.752c-0.816,0 -1.492,0.272 -2.028,0.816c-0.536,0.544 -0.804,1.296 -0.804,2.256c-0,0.976 0.268,1.74 0.804,2.292c0.536,0.552 1.212,0.828 2.028,0.828c1.136,0 2,-0.584 2.592,-1.752l3.528,1.8c-0.448,1.12 -1.208,1.996 -2.28,2.628c-1.072,0.632 -2.344,0.948 -3.816,0.948Z" style="fill:#f6b141;fill-rule:nonzero;"/><path d="M594.675,339.831c1.616,0 2.916,0.48 3.9,1.44c0.984,0.96 1.476,2.408 1.476,4.344l-0,7.44l-4.56,0l-0,-6.696c-0,-1.776 -0.712,-2.664 -2.136,-2.664c-0.784,0 -1.412,0.256 -1.884,0.768c-0.472,0.512 -0.708,1.28 -0.708,2.304l-0,6.288l-4.56,0l-0,-17.808l4.56,0l-0,6c0.496,-0.464 1.08,-0.816 1.752,-1.056c0.672,-0.24 1.392,-0.36 2.16,-0.36Z" style="fill:#f6b141;fill-rule:nonzero;"/><path d="M622.227,349.287l-0,3.768l-13.08,0l-0,-2.976l6.288,-5.88c0.608,-0.576 1.016,-1.068 1.224,-1.476c0.208,-0.408 0.312,-0.82 0.312,-1.236c-0,-0.544 -0.184,-0.968 -0.552,-1.272c-0.368,-0.304 -0.904,-0.456 -1.608,-0.456c-0.624,0 -1.196,0.14 -1.716,0.42c-0.52,0.28 -0.948,0.684 -1.284,1.212l-3.528,-1.968c0.656,-1.088 1.576,-1.944 2.76,-2.568c1.184,-0.624 2.584,-0.936 4.2,-0.936c1.28,0 2.412,0.208 3.396,0.624c0.984,0.416 1.752,1.012 2.304,1.788c0.552,0.776 0.828,1.676 0.828,2.7c-0,0.912 -0.196,1.772 -0.588,2.58c-0.392,0.808 -1.148,1.724 -2.268,2.748l-3.168,2.928l6.48,0Z" style="fill:#f6b141;fill-rule:nonzero;"/><path d="M526.263,90.564l4.752,-0l-0,13.032l8.016,-0l-0,3.768l-12.768,-0l-0,-16.8Z" style="fill:#f6b141;fill-rule:nonzero;"/><path d="M540.687,94.356l4.56,-0l-0,13.008l-4.56,-0l-0,-13.008Zm2.28,-1.44c-0.832,-0 -1.504,-0.232 -2.016,-0.696c-0.512,-0.464 -0.768,-1.04 -0.768,-1.728c-0,-0.688 0.256,-1.264 0.768,-1.728c0.512,-0.464 1.184,-0.696 2.016,-0.696c0.832,-0 1.504,0.22 2.016,0.66c0.512,0.44 0.768,1.004 0.768,1.692c-0,0.72 -0.256,1.316 -0.768,1.788c-0.512,0.472 -1.184,0.708 -2.016,0.708Z" style="fill:#f6b141;fill-rule:nonzero;"/><path d="M562.191,94.356l-0,10.632c-0,2.416 -0.656,4.228 -1.968,5.436c-1.312,1.208 -3.2,1.812 -5.664,1.812c-1.28,-0 -2.48,-0.144 -3.6,-0.432c-1.12,-0.288 -2.072,-0.712 -2.856,-1.272l1.656,-3.192c0.528,0.432 1.196,0.772 2.004,1.02c0.808,0.248 1.604,0.372 2.388,0.372c1.2,-0 2.08,-0.264 2.64,-0.792c0.56,-0.528 0.84,-1.312 0.84,-2.352l-0,-0.432c-0.88,1.024 -2.168,1.536 -3.864,1.536c-1.152,-0 -2.216,-0.26 -3.192,-0.78c-0.976,-0.52 -1.752,-1.256 -2.328,-2.208c-0.576,-0.952 -0.864,-2.052 -0.864,-3.3c-0,-1.232 0.288,-2.324 0.864,-3.276c0.576,-0.952 1.352,-1.688 2.328,-2.208c0.976,-0.52 2.04,-0.78 3.192,-0.78c1.856,-0 3.216,0.6 4.08,1.8l-0,-1.584l4.344,-0Zm-7.344,8.712c0.816,-0 1.492,-0.248 2.028,-0.744c0.536,-0.496 0.804,-1.136 0.804,-1.92c-0,-0.784 -0.264,-1.42 -0.792,-1.908c-0.528,-0.488 -1.208,-0.732 -2.04,-0.732c-0.832,-0 -1.516,0.244 -2.052,0.732c-0.536,0.488 -0.804,1.124 -0.804,1.908c-0,0.784 0.272,1.424 0.816,1.92c0.544,0.496 1.224,0.744 2.04,0.744Z" style="fill:#f6b141;fill-rule:nonzero;"/><path d="M573.591,94.14c1.616,-0 2.916,0.48 3.9,1.44c0.984,0.96 1.476,2.408 1.476,4.344l-0,7.44l-4.56,-0l-0,-6.696c-0,-1.776 -0.712,-2.664 -2.136,-2.664c-0.784,-0 -1.412,0.256 -1.884,0.768c-0.472,0.512 -0.708,1.28 -0.708,2.304l-0,6.288l-4.56,-0l-0,-17.808l4.56,-0l-0,6c0.496,-0.464 1.08,-0.816 1.752,-1.056c0.672,-0.24 1.392,-0.36 2.16,-0.36Z" style="fill:#f6b141;fill-rule:nonzero;"/><path d="M590.799,106.836c-0.384,0.24 -0.852,0.424 -1.404,0.552c-0.552,0.128 -1.14,0.192 -1.764,0.192c-1.696,-0 -3,-0.416 -3.912,-1.248c-0.912,-0.832 -1.368,-2.072 -1.368,-3.72l-0,-4.368l-1.896,-0l-0,-3.408l1.896,-0l-0,-3.384l4.56,-0l-0,3.384l2.976,-0l-0,3.408l-2.976,-0l-0,4.32c-0,0.464 0.124,0.828 0.372,1.092c0.248,0.264 0.58,0.396 0.996,0.396c0.528,-0 0.992,-0.136 1.392,-0.408l1.128,3.192Z" style="fill:#f6b141;fill-rule:nonzero;"/><path d="M611.871,103.596l-0,3.768l-13.08,-0l-0,-2.976l6.288,-5.88c0.608,-0.576 1.016,-1.068 1.224,-1.476c0.208,-0.408 0.312,-0.82 0.312,-1.236c-0,-0.544 -0.184,-0.968 -0.552,-1.272c-0.368,-0.304 -0.904,-0.456 -1.608,-0.456c-0.624,-0 -1.196,0.14 -1.716,0.42c-0.52,0.28 -0.948,0.684 -1.284,1.212l-3.528,-1.968c0.656,-1.088 1.576,-1.944 2.76,-2.568c1.184,-0.624 2.584,-0.936 4.2,-0.936c1.28,-0 2.412,0.208 3.396,0.624c0.984,0.416 1.752,1.012 2.304,1.788c0.552,0.776 0.828,1.676 0.828,2.7c-0,0.912 -0.196,1.772 -0.588,2.58c-0.392,0.808 -1.148,1.724 -2.268,2.748l-3.168,2.928l6.48,-0Z" style="fill:#f6b141;fill-rule:nonzero;"/><path d="M216.793,389.517l2.592,0l0,9.088l5.616,0l0,2.112l-8.208,0l0,-11.2Z" style="fill-rule:nonzero;"/><path d="M229.529,389.517l0,11.2l-2.592,0l0,-9.12l-2.24,0l0,-2.08l4.832,0Z" style="fill-rule:nonzero;"/><path d="M310.444,389.517l2.592,0l0,9.088l5.616,0l0,2.112l-8.208,0l0,-11.2Z" style="fill-rule:nonzero;"/><path d="M327.772,398.605l0,2.112l-8.464,0l0,-1.68l4.32,-4.08c0.459,-0.437 0.768,-0.813 0.928,-1.128c0.16,-0.315 0.24,-0.627 0.24,-0.936c0,-0.448 -0.152,-0.792 -0.456,-1.032c-0.304,-0.24 -0.749,-0.36 -1.336,-0.36c-0.49,0 -0.933,0.093 -1.328,0.28c-0.394,0.187 -0.725,0.467 -0.992,0.84l-1.888,-1.216c0.438,-0.651 1.04,-1.16 1.808,-1.528c0.768,-0.368 1.648,-0.552 2.64,-0.552c0.832,0 1.56,0.136 2.184,0.408c0.624,0.272 1.11,0.656 1.456,1.152c0.347,0.496 0.52,1.08 0.52,1.752c0,0.608 -0.128,1.179 -0.384,1.712c-0.256,0.533 -0.752,1.141 -1.488,1.824l-2.576,2.432l4.816,0Z" style="fill-rule:nonzero;"/><g><circle cx="641.388" cy="394.781" r="7.087"/><circle cx="694.608" cy="394.781" r="7.087"/></g><path d="M688.888,312.814c-1.141,0 -2.173,-0.248 -3.096,-0.744c-0.923,-0.496 -1.648,-1.184 -2.176,-2.064c-0.528,-0.88 -0.792,-1.874 -0.792,-2.984c0,-1.109 0.264,-2.104 0.792,-2.984c0.528,-0.88 1.253,-1.568 2.176,-2.064c0.923,-0.496 1.96,-0.744 3.112,-0.744c0.971,0 1.848,0.171 2.632,0.512c0.784,0.342 1.443,0.832 1.976,1.472l-1.664,1.536c-0.757,-0.874 -1.696,-1.312 -2.816,-1.312c-0.693,0 -1.312,0.152 -1.856,0.456c-0.544,0.304 -0.968,0.728 -1.272,1.272c-0.304,0.544 -0.456,1.163 -0.456,1.856c0,0.694 0.152,1.312 0.456,1.856c0.304,0.544 0.728,0.968 1.272,1.272c0.544,0.304 1.163,0.456 1.856,0.456c1.12,0 2.059,-0.442 2.816,-1.328l1.664,1.536c-0.533,0.651 -1.195,1.147 -1.984,1.488c-0.789,0.342 -1.669,0.512 -2.64,0.512Z" style="fill-rule:nonzero;"/><path d="M700.44,312.814c-1.163,0 -2.211,-0.25 -3.144,-0.752c-0.933,-0.501 -1.664,-1.192 -2.192,-2.072c-0.528,-0.88 -0.792,-1.869 -0.792,-2.968c0,-1.098 0.264,-2.088 0.792,-2.968c0.528,-0.88 1.259,-1.57 2.192,-2.072c0.933,-0.501 1.981,-0.752 3.144,-0.752c1.163,0 2.208,0.251 3.136,0.752c0.928,0.502 1.659,1.192 2.192,2.072c0.533,0.88 0.8,1.87 0.8,2.968c0,1.099 -0.267,2.088 -0.8,2.968c-0.533,0.88 -1.264,1.571 -2.192,2.072c-0.928,0.502 -1.973,0.752 -3.136,0.752Zm0,-2.208c0.661,0 1.259,-0.152 1.792,-0.456c0.533,-0.304 0.952,-0.728 1.256,-1.272c0.304,-0.544 0.456,-1.162 0.456,-1.856c0,-0.693 -0.152,-1.312 -0.456,-1.856c-0.304,-0.544 -0.723,-0.968 -1.256,-1.272c-0.533,-0.304 -1.131,-0.456 -1.792,-0.456c-0.661,0 -1.259,0.152 -1.792,0.456c-0.533,0.304 -0.952,0.728 -1.256,1.272c-0.304,0.544 -0.456,1.163 -0.456,1.856c0,0.694 0.152,1.312 0.456,1.856c0.304,0.544 0.723,0.968 1.256,1.272c0.533,0.304 1.131,0.456 1.792,0.456Z" style="fill-rule:nonzero;"/><path d="M718.712,312.622l-0.016,-6.72l-3.296,5.536l-1.168,0l-3.28,-5.392l0,6.576l-2.432,0l0,-11.2l2.144,0l4.192,6.96l4.128,-6.96l2.128,0l0.032,11.2l-2.432,0Z" style="fill-rule:nonzero;"/><path d="M611.053,389.517l2.592,0l-0,9.088l5.616,0l-0,2.112l-8.208,0l-0,-11.2Z" style="fill-rule:nonzero;"/><path d="M628.381,398.605l-0,2.112l-8.464,0l-0,-1.68l4.32,-4.08c0.459,-0.437 0.768,-0.813 0.928,-1.128c0.16,-0.315 0.24,-0.627 0.24,-0.936c-0,-0.448 -0.152,-0.792 -0.456,-1.032c-0.304,-0.24 -0.749,-0.36 -1.336,-0.36c-0.491,0 -0.933,0.093 -1.328,0.28c-0.395,0.187 -0.725,0.467 -0.992,0.84l-1.888,-1.216c0.437,-0.651 1.04,-1.16 1.808,-1.528c0.768,-0.368 1.648,-0.552 2.64,-0.552c0.832,0 1.56,0.136 2.184,0.408c0.624,0.272 1.109,0.656 1.456,1.152c0.347,0.496 0.52,1.08 0.52,1.752c-0,0.608 -0.128,1.179 -0.384,1.712c-0.256,0.533 -0.752,1.141 -1.488,1.824l-2.576,2.432l4.816,0Z" style="fill-rule:nonzero;"/><path d="M709.461,389.517l2.592,0l0,9.088l5.616,0l0,2.112l-8.208,0l0,-11.2Z" style="fill-rule:nonzero;"/><path d="M722.197,389.517l0,11.2l-2.592,0l0,-9.12l-2.24,0l0,-2.08l4.832,0Z" style="fill-rule:nonzero;"/><g><circle cx="370.488" cy="174.294" r="42.947" style="fill:none;stroke:#000;stroke-width:5px;"/><path d="M340.538,144.343l59.901,59.901" style="fill:none;stroke:#000;stroke-width:5px;"/><path d="M340.538,204.244l59.901,-59.901" style="fill:none;stroke:#000;stroke-width:5px;"/></g><g><circle cx="568.515" cy="174.294" r="42.947" style="fill:none;stroke:#000;stroke-width:5px;"/><path d="M538.564,144.343l59.901,59.901" style="fill:none;stroke:#000;stroke-width:5px;"/><path d="M538.564,204.244l59.901,-59.901" style="fill:none;stroke:#000;stroke-width:5px;"/></g><path d="M271.005,299.6l-0,-27.084l-144.672,0" style="fill:none;stroke:#000;stroke-width:5px;"/><g><path d="M448.745,255.044l39.035,-0" style="fill:none;stroke:#000;stroke-width:1px;"/><path d="M448.745,237.539l39.035,-0" style="fill:none;stroke:#000;stroke-width:1px;"/></g><path d="M667.998,299.6l0,-62.061l-288.375,-0" style="fill:none;stroke:#000;stroke-width:5px;"/><path d="M379.623,237.539l-0,-20.67" style="fill:none;stroke:#000;stroke-width:5px;"/><path d="M271.005,306.686l-26.61,88.095l-0,117.147l450.213,-0l0,-117.147" style="fill:none;stroke:#000;stroke-width:5px;"/><path d="M297.614,394.781l0,70.525l343.774,0l0,-70.525" style="fill:none;stroke:#000;stroke-width:5px;"/><path d="M641.388,394.781l26.61,-88.095" style="fill:none;stroke:#000;stroke-width:5px;"/><path d="M577.267,237.539l-0,-20.67" style="fill:none;stroke:#000;stroke-width:5px;"/><path d="M362.118,255.044l-0,-38.175" style="fill:none;stroke:#000;stroke-width:5px;"/><path d="M424.886,51.228l-4.32,-6.24l-4.768,-0l0,6.24l-5.184,-0l0,-22.4l9.696,-0c1.984,-0 3.707,0.331 5.168,0.992c1.462,0.661 2.587,1.6 3.376,2.816c0.79,1.216 1.184,2.656 1.184,4.32c0,1.664 -0.4,3.099 -1.2,4.304c-0.8,1.205 -1.936,2.128 -3.408,2.768l5.024,7.2l-5.568,-0Zm-0.096,-14.272c0,-1.259 -0.405,-2.224 -1.216,-2.896c-0.81,-0.672 -1.994,-1.008 -3.552,-1.008l-4.224,-0l0,7.808l4.224,-0c1.558,-0 2.742,-0.341 3.552,-1.024c0.811,-0.683 1.216,-1.643 1.216,-2.88Z" style="fill-rule:nonzero;"/><path d="M441.974,51.484c-1.813,-0 -3.44,-0.379 -4.88,-1.136c-1.44,-0.757 -2.565,-1.808 -3.376,-3.152c-0.81,-1.344 -1.216,-2.869 -1.216,-4.576c0,-1.707 0.406,-3.232 1.216,-4.576c0.811,-1.344 1.936,-2.395 3.376,-3.152c1.44,-0.757 3.067,-1.136 4.88,-1.136c1.814,-0 3.435,0.379 4.864,1.136c1.43,0.757 2.55,1.808 3.36,3.152c0.811,1.344 1.216,2.869 1.216,4.576c0,1.707 -0.405,3.232 -1.216,4.576c-0.81,1.344 -1.93,2.395 -3.36,3.152c-1.429,0.757 -3.05,1.136 -4.864,1.136Zm0,-4.096c1.28,-0 2.331,-0.432 3.152,-1.296c0.822,-0.864 1.232,-2.021 1.232,-3.472c0,-1.451 -0.41,-2.608 -1.232,-3.472c-0.821,-0.864 -1.872,-1.296 -3.152,-1.296c-1.28,-0 -2.336,0.432 -3.168,1.296c-0.832,0.864 -1.248,2.021 -1.248,3.472c0,1.451 0.416,2.608 1.248,3.472c0.832,0.864 1.888,1.296 3.168,1.296Z" style="fill-rule:nonzero;"/><path d="M462.934,51.484c-1.813,-0 -3.44,-0.379 -4.88,-1.136c-1.44,-0.757 -2.565,-1.808 -3.376,-3.152c-0.81,-1.344 -1.216,-2.869 -1.216,-4.576c0,-1.707 0.406,-3.232 1.216,-4.576c0.811,-1.344 1.936,-2.395 3.376,-3.152c1.44,-0.757 3.067,-1.136 4.88,-1.136c1.814,-0 3.435,0.379 4.864,1.136c1.43,0.757 2.55,1.808 3.36,3.152c0.811,1.344 1.216,2.869 1.216,4.576c0,1.707 -0.405,3.232 -1.216,4.576c-0.81,1.344 -1.93,2.395 -3.36,3.152c-1.429,0.757 -3.05,1.136 -4.864,1.136Zm0,-4.096c1.28,-0 2.331,-0.432 3.152,-1.296c0.822,-0.864 1.232,-2.021 1.232,-3.472c0,-1.451 -0.41,-2.608 -1.232,-3.472c-0.821,-0.864 -1.872,-1.296 -3.152,-1.296c-1.28,-0 -2.336,0.432 -3.168,1.296c-0.832,0.864 -1.248,2.021 -1.248,3.472c0,1.451 0.416,2.608 1.248,3.472c0.832,0.864 1.888,1.296 3.168,1.296Z" style="fill-rule:nonzero;"/><path d="M497.75,33.756c2.155,-0 3.867,0.635 5.136,1.904c1.27,1.269 1.904,3.173 1.904,5.712l0,9.856l-4.992,-0l0,-9.088c0,-1.365 -0.282,-2.384 -0.848,-3.056c-0.565,-0.672 -1.37,-1.008 -2.416,-1.008c-1.173,-0 -2.101,0.379 -2.784,1.136c-0.682,0.757 -1.024,1.883 -1.024,3.376l0,8.64l-4.992,-0l0,-9.088c0,-2.709 -1.088,-4.064 -3.264,-4.064c-1.152,-0 -2.069,0.379 -2.752,1.136c-0.682,0.757 -1.024,1.883 -1.024,3.376l0,8.64l-4.992,-0l0,-17.216l4.768,-0l0,1.984c0.64,-0.725 1.424,-1.28 2.352,-1.664c0.928,-0.384 1.947,-0.576 3.056,-0.576c1.216,-0 2.315,0.24 3.296,0.72c0.982,0.48 1.771,1.179 2.368,2.096c0.704,-0.896 1.595,-1.589 2.672,-2.08c1.078,-0.491 2.256,-0.736 3.536,-0.736Z" style="fill-rule:nonzero;"/><path d="M525.91,28.828l0,22.4l-5.184,-0l0,-18.24l-4.48,-0l0,-4.16l9.664,-0Z" style="fill-rule:nonzero;"/><path d="M1261.18,51.228l-4.32,-6.24l-4.768,-0l0,6.24l-5.184,-0l0,-22.4l9.696,-0c1.984,-0 3.707,0.331 5.168,0.992c1.461,0.661 2.587,1.6 3.376,2.816c0.789,1.216 1.184,2.656 1.184,4.32c0,1.664 -0.4,3.099 -1.2,4.304c-0.8,1.205 -1.936,2.128 -3.408,2.768l5.024,7.2l-5.568,-0Zm-0.096,-14.272c0,-1.259 -0.405,-2.224 -1.216,-2.896c-0.811,-0.672 -1.995,-1.008 -3.552,-1.008l-4.224,-0l0,7.808l4.224,-0c1.557,-0 2.741,-0.341 3.552,-1.024c0.811,-0.683 1.216,-1.643 1.216,-2.88Z" style="fill-rule:nonzero;"/><path d="M1278.27,51.484c-1.813,-0 -3.44,-0.379 -4.88,-1.136c-1.44,-0.757 -2.565,-1.808 -3.376,-3.152c-0.811,-1.344 -1.216,-2.869 -1.216,-4.576c0,-1.707 0.405,-3.232 1.216,-4.576c0.811,-1.344 1.936,-2.395 3.376,-3.152c1.44,-0.757 3.067,-1.136 4.88,-1.136c1.813,-0 3.435,0.379 4.864,1.136c1.429,0.757 2.549,1.808 3.36,3.152c0.811,1.344 1.216,2.869 1.216,4.576c0,1.707 -0.405,3.232 -1.216,4.576c-0.811,1.344 -1.931,2.395 -3.36,3.152c-1.429,0.757 -3.051,1.136 -4.864,1.136Zm0,-4.096c1.28,-0 2.331,-0.432 3.152,-1.296c0.821,-0.864 1.232,-2.021 1.232,-3.472c0,-1.451 -0.411,-2.608 -1.232,-3.472c-0.821,-0.864 -1.872,-1.296 -3.152,-1.296c-1.28,-0 -2.336,0.432 -3.168,1.296c-0.832,0.864 -1.248,2.021 -1.248,3.472c0,1.451 0.416,2.608 1.248,3.472c0.832,0.864 1.888,1.296 3.168,1.296Z" style="fill-rule:nonzero;"/><path d="M1299.23,51.484c-1.813,-0 -3.44,-0.379 -4.88,-1.136c-1.44,-0.757 -2.565,-1.808 -3.376,-3.152c-0.811,-1.344 -1.216,-2.869 -1.216,-4.576c0,-1.707 0.405,-3.232 1.216,-4.576c0.811,-1.344 1.936,-2.395 3.376,-3.152c1.44,-0.757 3.067,-1.136 4.88,-1.136c1.813,-0 3.435,0.379 4.864,1.136c1.429,0.757 2.549,1.808 3.36,3.152c0.811,1.344 1.216,2.869 1.216,4.576c0,1.707 -0.405,3.232 -1.216,4.576c-0.811,1.344 -1.931,2.395 -3.36,3.152c-1.429,0.757 -3.051,1.136 -4.864,1.136Zm0,-4.096c1.28,-0 2.331,-0.432 3.152,-1.296c0.821,-0.864 1.232,-2.021 1.232,-3.472c0,-1.451 -0.411,-2.608 -1.232,-3.472c-0.821,-0.864 -1.872,-1.296 -3.152,-1.296c-1.28,-0 -2.336,0.432 -3.168,1.296c-0.832,0.864 -1.248,2.021 -1.248,3.472c0,1.451 0.416,2.608 1.248,3.472c0.832,0.864 1.888,1.296 3.168,1.296Z" style="fill-rule:nonzero;"/><path d="M1334.04,33.756c2.155,-0 3.867,0.635 5.136,1.904c1.269,1.269 1.904,3.173 1.904,5.712l0,9.856l-4.992,-0l0,-9.088c0,-1.365 -0.283,-2.384 -0.848,-3.056c-0.565,-0.672 -1.371,-1.008 -2.416,-1.008c-1.173,-0 -2.101,0.379 -2.784,1.136c-0.683,0.757 -1.024,1.883 -1.024,3.376l0,8.64l-4.992,-0l0,-9.088c0,-2.709 -1.088,-4.064 -3.264,-4.064c-1.152,-0 -2.069,0.379 -2.752,1.136c-0.683,0.757 -1.024,1.883 -1.024,3.376l0,8.64l-4.992,-0l0,-17.216l4.768,-0l0,1.984c0.64,-0.725 1.424,-1.28 2.352,-1.664c0.928,-0.384 1.947,-0.576 3.056,-0.576c1.216,-0 2.315,0.24 3.296,0.72c0.981,0.48 1.771,1.179 2.368,2.096c0.704,-0.896 1.595,-1.589 2.672,-2.08c1.077,-0.491 2.256,-0.736 3.536,-0.736Z" style="fill-rule:nonzero;"/><path d="M1370.3,47.004l0,4.224l-16.928,-0l0,-3.36l8.64,-8.16c0.917,-0.875 1.536,-1.627 1.856,-2.256c0.32,-0.629 0.48,-1.253 0.48,-1.872c0,-0.896 -0.304,-1.584 -0.912,-2.064c-0.608,-0.48 -1.499,-0.72 -2.672,-0.72c-0.981,-0 -1.867,0.187 -2.656,0.56c-0.789,0.373 -1.451,0.933 -1.984,1.68l-3.776,-2.432c0.875,-1.301 2.08,-2.32 3.616,-3.056c1.536,-0.736 3.296,-1.104 5.28,-1.104c1.664,-0 3.12,0.272 4.368,0.816c1.248,0.544 2.219,1.312 2.912,2.304c0.693,0.992 1.04,2.16 1.04,3.504c0,1.216 -0.256,2.357 -0.768,3.424c-0.512,1.067 -1.504,2.283 -2.976,3.648l-5.152,4.864l9.632,-0Z" style="fill-rule:nonzero;"/><g><circle cx="1108.49" cy="306.686" r="7.087"/><circle cx="1505.48" cy="306.686" r="7.087"/></g><g><circle cx="1081.88" cy="394.781" r="7.087"/><circle cx="1135.1" cy="394.781" r="7.087"/></g><path d="M1060.18,312.814c-1.142,0 -2.174,-0.248 -3.096,-0.744c-0.923,-0.496 -1.648,-1.184 -2.176,-2.064c-0.528,-0.88 -0.792,-1.874 -0.792,-2.984c-0,-1.109 0.264,-2.104 0.792,-2.984c0.528,-0.88 1.253,-1.568 2.176,-2.064c0.922,-0.496 1.96,-0.744 3.112,-0.744c0.97,0 1.848,0.171 2.632,0.512c0.784,0.342 1.442,0.832 1.976,1.472l-1.664,1.536c-0.758,-0.874 -1.696,-1.312 -2.816,-1.312c-0.694,0 -1.312,0.152 -1.856,0.456c-0.544,0.304 -0.968,0.728 -1.272,1.272c-0.304,0.544 -0.456,1.163 -0.456,1.856c-0,0.694 0.152,1.312 0.456,1.856c0.304,0.544 0.728,0.968 1.272,1.272c0.544,0.304 1.162,0.456 1.856,0.456c1.12,0 2.058,-0.442 2.816,-1.328l1.664,1.536c-0.534,0.651 -1.195,1.147 -1.984,1.488c-0.79,0.342 -1.67,0.512 -2.64,0.512Z" style="fill-rule:nonzero;"/><path d="M1071.74,312.814c-1.163,0 -2.211,-0.25 -3.144,-0.752c-0.934,-0.501 -1.664,-1.192 -2.192,-2.072c-0.528,-0.88 -0.792,-1.869 -0.792,-2.968c-0,-1.098 0.264,-2.088 0.792,-2.968c0.528,-0.88 1.258,-1.57 2.192,-2.072c0.933,-0.501 1.981,-0.752 3.144,-0.752c1.162,0 2.208,0.251 3.136,0.752c0.928,0.502 1.658,1.192 2.192,2.072c0.533,0.88 0.8,1.87 0.8,2.968c-0,1.099 -0.267,2.088 -0.8,2.968c-0.534,0.88 -1.264,1.571 -2.192,2.072c-0.928,0.502 -1.974,0.752 -3.136,0.752Zm-0,-2.208c0.661,0 1.258,-0.152 1.792,-0.456c0.533,-0.304 0.952,-0.728 1.256,-1.272c0.304,-0.544 0.456,-1.162 0.456,-1.856c-0,-0.693 -0.152,-1.312 -0.456,-1.856c-0.304,-0.544 -0.723,-0.968 -1.256,-1.272c-0.534,-0.304 -1.131,-0.456 -1.792,-0.456c-0.662,0 -1.259,0.152 -1.792,0.456c-0.534,0.304 -0.952,0.728 -1.256,1.272c-0.304,0.544 -0.456,1.163 -0.456,1.856c-0,0.694 0.152,1.312 0.456,1.856c0.304,0.544 0.722,0.968 1.256,1.272c0.533,0.304 1.13,0.456 1.792,0.456Z" style="fill-rule:nonzero;"/><path d="M1090.01,312.622l-0.016,-6.72l-3.296,5.536l-1.168,0l-3.28,-5.392l-0,6.576l-2.432,0l-0,-11.2l2.144,0l4.192,6.96l4.128,-6.96l2.128,0l0.032,11.2l-2.432,0Z" style="fill-rule:nonzero;"/><path d="M969.761,231.932c0.992,-0 1.853,0.165 2.584,0.496c0.73,0.331 1.293,0.8 1.688,1.408c0.394,0.608 0.592,1.328 0.592,2.16c-0,0.821 -0.198,1.539 -0.592,2.152c-0.395,0.613 -0.958,1.083 -1.688,1.408c-0.731,0.325 -1.592,0.488 -2.584,0.488l-2.256,-0l-0,3.088l-2.592,-0l-0,-11.2l4.848,-0Zm-0.144,6c0.778,-0 1.37,-0.168 1.776,-0.504c0.405,-0.336 0.608,-0.813 0.608,-1.432c-0,-0.629 -0.203,-1.112 -0.608,-1.448c-0.406,-0.336 -0.998,-0.504 -1.776,-0.504l-2.112,-0l-0,3.888l2.112,-0Z" style="fill-rule:nonzero;"/><path d="M980.369,243.26c-0.907,-0 -1.72,-0.189 -2.44,-0.568c-0.72,-0.379 -1.283,-0.904 -1.688,-1.576c-0.406,-0.672 -0.608,-1.435 -0.608,-2.288c-0,-0.853 0.202,-1.616 0.608,-2.288c0.405,-0.672 0.968,-1.197 1.688,-1.576c0.72,-0.379 1.533,-0.568 2.44,-0.568c0.906,-0 1.717,0.189 2.432,0.568c0.714,0.379 1.274,0.904 1.68,1.576c0.405,0.672 0.608,1.435 0.608,2.288c-0,0.853 -0.203,1.616 -0.608,2.288c-0.406,0.672 -0.966,1.197 -1.68,1.576c-0.715,0.379 -1.526,0.568 -2.432,0.568Zm-0,-2.048c0.64,-0 1.165,-0.216 1.576,-0.648c0.41,-0.432 0.616,-1.011 0.616,-1.736c-0,-0.725 -0.206,-1.304 -0.616,-1.736c-0.411,-0.432 -0.936,-0.648 -1.576,-0.648c-0.64,-0 -1.168,0.216 -1.584,0.648c-0.416,0.432 -0.624,1.011 -0.624,1.736c-0,0.725 0.208,1.304 0.624,1.736c0.416,0.432 0.944,0.648 1.584,0.648Z" style="fill-rule:nonzero;"/><path d="M1000.34,234.524l-3.12,8.608l-2.4,-0l-1.936,-5.344l-2,5.344l-2.4,-0l-3.104,-8.608l2.352,-0l2.032,5.824l2.112,-5.824l2.112,-0l2.048,5.824l2.096,-5.824l2.208,-0Z" style="fill-rule:nonzero;"/><path d="M1009.7,238.86c-0,0.032 -0.016,0.256 -0.048,0.672l-6.512,-0c0.117,0.533 0.394,0.955 0.832,1.264c0.437,0.309 0.981,0.464 1.632,0.464c0.448,-0 0.845,-0.067 1.192,-0.2c0.346,-0.133 0.669,-0.344 0.968,-0.632l1.328,1.44c-0.811,0.928 -1.995,1.392 -3.552,1.392c-0.971,-0 -1.83,-0.189 -2.576,-0.568c-0.747,-0.379 -1.323,-0.904 -1.728,-1.576c-0.406,-0.672 -0.608,-1.435 -0.608,-2.288c-0,-0.843 0.2,-1.603 0.6,-2.28c0.4,-0.677 0.949,-1.205 1.648,-1.584c0.698,-0.379 1.48,-0.568 2.344,-0.568c0.842,-0 1.605,0.181 2.288,0.544c0.682,0.363 1.218,0.883 1.608,1.56c0.389,0.677 0.584,1.464 0.584,2.36Zm-4.464,-2.576c-0.566,-0 -1.04,0.16 -1.424,0.48c-0.384,0.32 -0.619,0.757 -0.704,1.312l4.24,-0c-0.086,-0.544 -0.32,-0.979 -0.704,-1.304c-0.384,-0.325 -0.854,-0.488 -1.408,-0.488Z" style="fill-rule:nonzero;"/><path d="M1013.75,235.66c0.298,-0.416 0.701,-0.731 1.208,-0.944c0.506,-0.213 1.09,-0.32 1.752,-0.32l-0,2.304c-0.278,-0.021 -0.464,-0.032 -0.56,-0.032c-0.715,-0 -1.275,0.2 -1.68,0.6c-0.406,0.4 -0.608,1 -0.608,1.8l-0,4.064l-2.496,-0l-0,-8.608l2.384,-0l-0,1.136Z" style="fill-rule:nonzero;"/><path d="M1165.67,90.564l4.752,-0l-0,13.032l8.016,-0l-0,3.768l-12.768,-0l-0,-16.8Z" style="fill:#f6b141;fill-rule:nonzero;"/><path d="M1180.09,94.356l4.56,-0l-0,13.008l-4.56,-0l-0,-13.008Zm2.28,-1.44c-0.832,-0 -1.504,-0.232 -2.016,-0.696c-0.512,-0.464 -0.768,-1.04 -0.768,-1.728c-0,-0.688 0.256,-1.264 0.768,-1.728c0.512,-0.464 1.184,-0.696 2.016,-0.696c0.832,-0 1.504,0.22 2.016,0.66c0.512,0.44 0.768,1.004 0.768,1.692c-0,0.72 -0.256,1.316 -0.768,1.788c-0.512,0.472 -1.184,0.708 -2.016,0.708Z" style="fill:#f6b141;fill-rule:nonzero;"/><path d="M1201.6,94.356l-0,10.632c-0,2.416 -0.656,4.228 -1.968,5.436c-1.312,1.208 -3.2,1.812 -5.664,1.812c-1.28,-0 -2.48,-0.144 -3.6,-0.432c-1.12,-0.288 -2.072,-0.712 -2.856,-1.272l1.656,-3.192c0.528,0.432 1.196,0.772 2.004,1.02c0.808,0.248 1.604,0.372 2.388,0.372c1.2,-0 2.08,-0.264 2.64,-0.792c0.56,-0.528 0.84,-1.312 0.84,-2.352l-0,-0.432c-0.88,1.024 -2.168,1.536 -3.864,1.536c-1.152,-0 -2.216,-0.26 -3.192,-0.78c-0.976,-0.52 -1.752,-1.256 -2.328,-2.208c-0.576,-0.952 -0.864,-2.052 -0.864,-3.3c-0,-1.232 0.288,-2.324 0.864,-3.276c0.576,-0.952 1.352,-1.688 2.328,-2.208c0.976,-0.52 2.04,-0.78 3.192,-0.78c1.856,-0 3.216,0.6 4.08,1.8l-0,-1.584l4.344,-0Zm-7.344,8.712c0.816,-0 1.492,-0.248 2.028,-0.744c0.536,-0.496 0.804,-1.136 0.804,-1.92c-0,-0.784 -0.264,-1.42 -0.792,-1.908c-0.528,-0.488 -1.208,-0.732 -2.04,-0.732c-0.832,-0 -1.516,0.244 -2.052,0.732c-0.536,0.488 -0.804,1.124 -0.804,1.908c-0,0.784 0.272,1.424 0.816,1.92c0.544,0.496 1.224,0.744 2.04,0.744Z" style="fill:#f6b141;fill-rule:nonzero;"/><path d="M1213,94.14c1.616,-0 2.916,0.48 3.9,1.44c0.984,0.96 1.476,2.408 1.476,4.344l-0,7.44l-4.56,-0l-0,-6.696c-0,-1.776 -0.712,-2.664 -2.136,-2.664c-0.784,-0 -1.412,0.256 -1.884,0.768c-0.472,0.512 -0.708,1.28 -0.708,2.304l-0,6.288l-4.56,-0l-0,-17.808l4.56,-0l-0,6c0.496,-0.464 1.08,-0.816 1.752,-1.056c0.672,-0.24 1.392,-0.36 2.16,-0.36Z" style="fill:#f6b141;fill-rule:nonzero;"/><path d="M1230.21,106.836c-0.384,0.24 -0.852,0.424 -1.404,0.552c-0.552,0.128 -1.14,0.192 -1.764,0.192c-1.696,-0 -3,-0.416 -3.912,-1.248c-0.912,-0.832 -1.368,-2.072 -1.368,-3.72l-0,-4.368l-1.896,-0l-0,-3.408l1.896,-0l-0,-3.384l4.56,-0l-0,3.384l2.976,-0l-0,3.408l-2.976,-0l-0,4.32c-0,0.464 0.124,0.828 0.372,1.092c0.248,0.264 0.58,0.396 0.996,0.396c0.528,-0 0.992,-0.136 1.392,-0.408l1.128,3.192Z" style="fill:#f6b141;fill-rule:nonzero;"/><path d="M1246.91,97.284c1.392,0.288 2.46,0.86 3.204,1.716c0.744,0.856 1.116,1.892 1.116,3.108c-0,0.992 -0.268,1.912 -0.804,2.76c-0.536,0.848 -1.352,1.532 -2.448,2.052c-1.096,0.52 -2.452,0.78 -4.068,0.78c-1.184,-0 -2.356,-0.144 -3.516,-0.432c-1.16,-0.288 -2.164,-0.696 -3.012,-1.224l1.728,-3.576c0.656,0.448 1.396,0.792 2.22,1.032c0.824,0.24 1.636,0.36 2.436,0.36c0.816,-0 1.464,-0.152 1.944,-0.456c0.48,-0.304 0.72,-0.736 0.72,-1.296c-0,-1.088 -0.856,-1.632 -2.568,-1.632l-1.992,-0l-0,-3l3,-3.24l-6.624,-0l-0,-3.672l12.144,-0l-0,2.976l-3.48,3.744Z" style="fill:#f6b141;fill-rule:nonzero;"/><g transform="matrix(0.24,0,0,0.24,514.02,-186.778)"><g transform="matrix(100,0,0,100,2676.72,2249.3)"><path d="M0.316,0.014c-0.057,0 -0.112,-0.007 -0.165,-0.021c-0.053,-0.014 -0.097,-0.033 -0.13,-0.056l0.065,-0.146c0.031,0.021 0.068,0.037 0.109,0.05c0.041,0.013 0.082,0.019 0.122,0.019c0.076,-0 0.114,-0.019 0.114,-0.057c0,-0.02 -0.011,-0.035 -0.032,-0.045c-0.022,-0.009 -0.057,-0.019 -0.105,-0.03c-0.053,-0.011 -0.097,-0.023 -0.132,-0.036c-0.035,-0.013 -0.066,-0.034 -0.091,-0.063c-0.025,-0.029 -0.038,-0.067 -0.038,-0.116c-0,-0.043 0.012,-0.081 0.035,-0.115c0.023,-0.035 0.058,-0.062 0.104,-0.082c0.047,-0.02 0.104,-0.03 0.171,-0.03c0.046,0 0.091,0.005 0.136,0.016c0.045,0.01 0.084,0.025 0.118,0.045l-0.061,0.147c-0.067,-0.036 -0.131,-0.054 -0.194,-0.054c-0.039,0 -0.068,0.006 -0.086,0.018c-0.018,0.011 -0.027,0.026 -0.027,0.045c0,0.019 0.011,0.033 0.032,0.042c0.021,0.009 0.056,0.019 0.103,0.029c0.053,0.011 0.098,0.024 0.133,0.037c0.034,0.013 0.065,0.033 0.091,0.062c0.025,0.028 0.038,0.066 0.038,0.115c0,0.042 -0.012,0.08 -0.035,0.114c-0.023,0.034 -0.058,0.061 -0.105,0.082c-0.047,0.02 -0.103,0.03 -0.17,0.03Z" style="fill:#f6b141;fill-rule:nonzero;"/></g><g transform="matrix(100,0,0,100,2740.42,2249.3)"><path d="M0.959,-0.542l-0.193,0.542l-0.184,-0l-0.102,-0.295l-0.106,0.295l-0.184,-0l-0.193,-0.542l0.18,0l0.111,0.328l0.115,-0.328l0.162,0l0.112,0.331l0.115,-0.331l0.167,0Z" style="fill:#f6b141;fill-rule:nonzero;"/></g><g transform="matrix(100,0,0,100,2836.02,2249.3)"><path d="M0.061,-0.542l0.19,0l0,0.542l-0.19,-0l0,-0.542Zm0.095,-0.06c-0.035,0 -0.063,-0.01 -0.084,-0.029c-0.021,-0.019 -0.032,-0.043 -0.032,-0.072c0,-0.029 0.011,-0.053 0.032,-0.072c0.021,-0.019 0.049,-0.029 0.084,-0.029c0.035,0 0.063,0.009 0.084,0.028c0.021,0.018 0.032,0.041 0.032,0.07c0,0.03 -0.011,0.055 -0.032,0.075c-0.021,0.019 -0.049,0.029 -0.084,0.029Z" style="fill:#f6b141;fill-rule:nonzero;"/></g><g transform="matrix(100,0,0,100,2867.32,2249.3)"><path d="M0.435,-0.022c-0.016,0.01 -0.035,0.018 -0.058,0.023c-0.024,0.005 -0.048,0.008 -0.074,0.008c-0.071,0 -0.125,-0.017 -0.163,-0.052c-0.038,-0.035 -0.057,-0.086 -0.057,-0.155l0,-0.182l-0.079,0l0,-0.142l0.079,0l0,-0.141l0.19,0l0,0.141l0.124,0l0,0.142l-0.124,0l0,0.18c0,0.019 0.005,0.035 0.015,0.046c0.011,0.011 0.025,0.016 0.042,0.016c0.022,0 0.041,-0.006 0.058,-0.017l0.047,0.133Z" style="fill:#f6b141;fill-rule:nonzero;"/></g><g transform="matrix(100,0,0,100,2910.42,2249.3)"><path d="M0.338,0.009c-0.06,0 -0.114,-0.012 -0.161,-0.036c-0.047,-0.024 -0.084,-0.057 -0.111,-0.1c-0.026,-0.043 -0.039,-0.091 -0.039,-0.145c-0,-0.054 0.013,-0.102 0.039,-0.144c0.027,-0.043 0.064,-0.076 0.111,-0.099c0.047,-0.024 0.101,-0.036 0.161,-0.036c0.061,0 0.114,0.013 0.159,0.039c0.045,0.027 0.076,0.063 0.095,0.11l-0.147,0.075c-0.025,-0.049 -0.061,-0.073 -0.108,-0.073c-0.034,-0 -0.062,0.011 -0.084,0.034c-0.023,0.023 -0.034,0.054 -0.034,0.094c0,0.041 0.011,0.073 0.034,0.096c0.022,0.023 0.05,0.034 0.084,0.034c0.047,0 0.083,-0.024 0.108,-0.073l0.147,0.075c-0.019,0.047 -0.05,0.083 -0.095,0.11c-0.045,0.026 -0.098,0.039 -0.159,0.039Z" style="fill:#f6b141;fill-rule:nonzero;"/></g><g transform="matrix(100,0,0,100,2970.52,2249.3)"><path d="M0.414,-0.551c0.067,0 0.121,0.02 0.162,0.06c0.041,0.04 0.062,0.1 0.062,0.181l-0,0.31l-0.19,0l-0,-0.279c-0,-0.074 -0.03,-0.111 -0.089,-0.111c-0.033,0 -0.059,0.011 -0.079,0.032c-0.019,0.021 -0.029,0.053 -0.029,0.096l-0,0.262l-0.19,0l-0,-0.742l0.19,0l-0,0.25c0.021,-0.019 0.045,-0.034 0.073,-0.044c0.028,-0.01 0.058,-0.015 0.09,-0.015Z" style="fill:#f6b141;fill-rule:nonzero;"/></g><g transform="matrix(100,0,0,100,3070.22,2249.3)"><path d="M0.393,-0.42c0.058,0.012 0.102,0.036 0.133,0.071c0.031,0.036 0.047,0.079 0.047,0.13c0,0.041 -0.011,0.08 -0.034,0.115c-0.022,0.035 -0.056,0.064 -0.102,0.085c-0.045,0.022 -0.102,0.033 -0.169,0.033c-0.049,-0 -0.098,-0.006 -0.147,-0.018c-0.048,-0.012 -0.09,-0.029 -0.125,-0.051l0.072,-0.149c0.027,0.019 0.058,0.033 0.092,0.043c0.035,0.01 0.069,0.015 0.102,0.015c0.034,-0 0.061,-0.006 0.081,-0.019c0.02,-0.013 0.03,-0.031 0.03,-0.054c0,-0.045 -0.036,-0.068 -0.107,-0.068l-0.083,-0l0,-0.125l0.125,-0.135l-0.276,-0l0,-0.153l0.506,-0l0,0.124l-0.145,0.156Z" style="fill:#f6b141;fill-rule:nonzero;"/></g></g><path d="M1358.08,353.391c-1.36,0 -2.68,-0.168 -3.96,-0.504c-1.28,-0.336 -2.32,-0.784 -3.12,-1.344l1.56,-3.504c0.752,0.496 1.624,0.896 2.616,1.2c0.992,0.304 1.968,0.456 2.928,0.456c1.824,0 2.736,-0.456 2.736,-1.368c0,-0.48 -0.26,-0.836 -0.78,-1.068c-0.52,-0.232 -1.356,-0.476 -2.508,-0.732c-1.264,-0.272 -2.32,-0.564 -3.168,-0.876c-0.848,-0.312 -1.576,-0.812 -2.184,-1.5c-0.608,-0.688 -0.912,-1.616 -0.912,-2.784c0,-1.024 0.28,-1.948 0.84,-2.772c0.56,-0.824 1.396,-1.476 2.508,-1.956c1.112,-0.48 2.476,-0.72 4.092,-0.72c1.104,0 2.192,0.124 3.264,0.372c1.072,0.248 2.016,0.612 2.832,1.092l-1.464,3.528c-1.6,-0.864 -3.152,-1.296 -4.656,-1.296c-0.944,0 -1.632,0.14 -2.064,0.42c-0.432,0.28 -0.648,0.644 -0.648,1.092c0,0.448 0.256,0.784 0.768,1.008c0.512,0.224 1.336,0.456 2.472,0.696c1.28,0.272 2.34,0.564 3.18,0.876c0.84,0.312 1.568,0.808 2.184,1.488c0.616,0.68 0.924,1.604 0.924,2.772c0,1.008 -0.28,1.92 -0.84,2.736c-0.56,0.816 -1.4,1.468 -2.52,1.956c-1.12,0.488 -2.48,0.732 -4.08,0.732Z" style="fill:#f6b141;fill-rule:nonzero;"/><path d="M1388.8,340.047l-4.632,13.008l-4.416,0l-2.448,-7.08l-2.544,7.08l-4.416,0l-4.632,-13.008l4.32,0l2.664,7.872l2.76,-7.872l3.888,0l2.688,7.944l2.76,-7.944l4.008,0Z" style="fill:#f6b141;fill-rule:nonzero;"/><path d="M1390.19,340.047l4.56,0l0,13.008l-4.56,0l0,-13.008Zm2.28,-1.44c-0.832,0 -1.504,-0.232 -2.016,-0.696c-0.512,-0.464 -0.768,-1.04 -0.768,-1.728c0,-0.688 0.256,-1.264 0.768,-1.728c0.512,-0.464 1.184,-0.696 2.016,-0.696c0.832,0 1.504,0.22 2.016,0.66c0.512,0.44 0.768,1.004 0.768,1.692c0,0.72 -0.256,1.316 -0.768,1.788c-0.512,0.472 -1.184,0.708 -2.016,0.708Z" style="fill:#f6b141;fill-rule:nonzero;"/><path d="M1406.68,352.527c-0.384,0.24 -0.852,0.424 -1.404,0.552c-0.552,0.128 -1.14,0.192 -1.764,0.192c-1.696,0 -3,-0.416 -3.912,-1.248c-0.912,-0.832 -1.368,-2.072 -1.368,-3.72l0,-4.368l-1.896,0l0,-3.408l1.896,0l0,-3.384l4.56,0l0,3.384l2.976,0l0,3.408l-2.976,0l0,4.32c0,0.464 0.124,0.828 0.372,1.092c0.248,0.264 0.58,0.396 0.996,0.396c0.528,0 0.992,-0.136 1.392,-0.408l1.128,3.192Z" style="fill:#f6b141;fill-rule:nonzero;"/><path d="M1414.7,353.271c-1.44,0 -2.728,-0.288 -3.864,-0.864c-1.136,-0.576 -2.02,-1.376 -2.652,-2.4c-0.632,-1.024 -0.948,-2.184 -0.948,-3.48c0,-1.296 0.316,-2.452 0.948,-3.468c0.632,-1.016 1.516,-1.808 2.652,-2.376c1.136,-0.568 2.424,-0.852 3.864,-0.852c1.472,0 2.744,0.316 3.816,0.948c1.072,0.632 1.832,1.508 2.28,2.628l-3.528,1.8c-0.592,-1.168 -1.456,-1.752 -2.592,-1.752c-0.816,0 -1.492,0.272 -2.028,0.816c-0.536,0.544 -0.804,1.296 -0.804,2.256c0,0.976 0.268,1.74 0.804,2.292c0.536,0.552 1.212,0.828 2.028,0.828c1.136,0 2,-0.584 2.592,-1.752l3.528,1.8c-0.448,1.12 -1.208,1.996 -2.28,2.628c-1.072,0.632 -2.344,0.948 -3.816,0.948Z" style="fill:#f6b141;fill-rule:nonzero;"/><path d="M1430.94,339.831c1.616,0 2.916,0.48 3.9,1.44c0.984,0.96 1.476,2.408 1.476,4.344l0,7.44l-4.56,0l0,-6.696c0,-1.776 -0.712,-2.664 -2.136,-2.664c-0.784,0 -1.412,0.256 -1.884,0.768c-0.472,0.512 -0.708,1.28 -0.708,2.304l0,6.288l-4.56,0l0,-17.808l4.56,0l0,6c0.496,-0.464 1.08,-0.816 1.752,-1.056c0.672,-0.24 1.392,-0.36 2.16,-0.36Z" style="fill:#f6b141;fill-rule:nonzero;"/><path d="M1461.35,349.839l-2.496,0l0,3.216l-4.632,0l0,-3.216l-8.88,0l0,-3.096l7.536,-10.488l4.92,0l-6.84,9.816l3.408,0l0,-2.856l4.488,0l0,2.856l2.496,0l0,3.768Z" style="fill:#f6b141;fill-rule:nonzero;"/><path d="M1362.53,90.564l4.752,-0l0,13.032l8.016,-0l0,3.768l-12.768,-0l0,-16.8Z" style="fill:#f6b141;fill-rule:nonzero;"/><path d="M1376.96,94.356l4.56,-0l0,13.008l-4.56,-0l0,-13.008Zm2.28,-1.44c-0.832,-0 -1.504,-0.232 -2.016,-0.696c-0.512,-0.464 -0.768,-1.04 -0.768,-1.728c0,-0.688 0.256,-1.264 0.768,-1.728c0.512,-0.464 1.184,-0.696 2.016,-0.696c0.832,-0 1.504,0.22 2.016,0.66c0.512,0.44 0.768,1.004 0.768,1.692c0,0.72 -0.256,1.316 -0.768,1.788c-0.512,0.472 -1.184,0.708 -2.016,0.708Z" style="fill:#f6b141;fill-rule:nonzero;"/><path d="M1398.46,94.356l0,10.632c0,2.416 -0.656,4.228 -1.968,5.436c-1.312,1.208 -3.2,1.812 -5.664,1.812c-1.28,-0 -2.48,-0.144 -3.6,-0.432c-1.12,-0.288 -2.072,-0.712 -2.856,-1.272l1.656,-3.192c0.528,0.432 1.196,0.772 2.004,1.02c0.808,0.248 1.604,0.372 2.388,0.372c1.2,-0 2.08,-0.264 2.64,-0.792c0.56,-0.528 0.84,-1.312 0.84,-2.352l0,-0.432c-0.88,1.024 -2.168,1.536 -3.864,1.536c-1.152,-0 -2.216,-0.26 -3.192,-0.78c-0.976,-0.52 -1.752,-1.256 -2.328,-2.208c-0.576,-0.952 -0.864,-2.052 -0.864,-3.3c0,-1.232 0.288,-2.324 0.864,-3.276c0.576,-0.952 1.352,-1.688 2.328,-2.208c0.976,-0.52 2.04,-0.78 3.192,-0.78c1.856,-0 3.216,0.6 4.08,1.8l0,-1.584l4.344,-0Zm-7.344,8.712c0.816,-0 1.492,-0.248 2.028,-0.744c0.536,-0.496 0.804,-1.136 0.804,-1.92c0,-0.784 -0.264,-1.42 -0.792,-1.908c-0.528,-0.488 -1.208,-0.732 -2.04,-0.732c-0.832,-0 -1.516,0.244 -2.052,0.732c-0.536,0.488 -0.804,1.124 -0.804,1.908c0,0.784 0.272,1.424 0.816,1.92c0.544,0.496 1.224,0.744 2.04,0.744Z" style="fill:#f6b141;fill-rule:nonzero;"/><path d="M1409.86,94.14c1.616,-0 2.916,0.48 3.9,1.44c0.984,0.96 1.476,2.408 1.476,4.344l0,7.44l-4.56,-0l0,-6.696c0,-1.776 -0.712,-2.664 -2.136,-2.664c-0.784,-0 -1.412,0.256 -1.884,0.768c-0.472,0.512 -0.708,1.28 -0.708,2.304l0,6.288l-4.56,-0l0,-17.808l4.56,-0l0,6c0.496,-0.464 1.08,-0.816 1.752,-1.056c0.672,-0.24 1.392,-0.36 2.16,-0.36Z" style="fill:#f6b141;fill-rule:nonzero;"/><path d="M1427.07,106.836c-0.384,0.24 -0.852,0.424 -1.404,0.552c-0.552,0.128 -1.14,0.192 -1.764,0.192c-1.696,-0 -3,-0.416 -3.912,-1.248c-0.912,-0.832 -1.368,-2.072 -1.368,-3.72l0,-4.368l-1.896,-0l0,-3.408l1.896,-0l0,-3.384l4.56,-0l0,3.384l2.976,-0l0,3.408l-2.976,-0l0,4.32c0,0.464 0.124,0.828 0.372,1.092c0.248,0.264 0.58,0.396 0.996,0.396c0.528,-0 0.992,-0.136 1.392,-0.408l1.128,3.192Z" style="fill:#f6b141;fill-rule:nonzero;"/><path d="M1451,104.148l-2.496,-0l0,3.216l-4.632,-0l0,-3.216l-8.88,-0l0,-3.096l7.536,-10.488l4.92,-0l-6.84,9.816l3.408,-0l0,-2.856l4.488,-0l0,2.856l2.496,-0l0,3.768Z" style="fill:#f6b141;fill-rule:nonzero;"/><path d="M1054.28,389.517l2.592,0l0,9.088l5.616,0l0,2.112l-8.208,0l0,-11.2Z" style="fill-rule:nonzero;"/><path d="M1067.01,389.517l0,11.2l-2.592,0l0,-9.12l-2.24,0l0,-2.08l4.832,0Z" style="fill-rule:nonzero;"/><path d="M1147.93,389.517l2.592,0l0,9.088l5.616,0l0,2.112l-8.208,0l0,-11.2Z" style="fill-rule:nonzero;"/><path d="M1165.25,398.605l0,2.112l-8.464,0l0,-1.68l4.32,-4.08c0.459,-0.437 0.768,-0.813 0.928,-1.128c0.16,-0.315 0.24,-0.627 0.24,-0.936c0,-0.448 -0.152,-0.792 -0.456,-1.032c-0.304,-0.24 -0.749,-0.36 -1.336,-0.36c-0.491,0 -0.933,0.093 -1.328,0.28c-0.395,0.187 -0.725,0.467 -0.992,0.84l-1.888,-1.216c0.437,-0.651 1.04,-1.16 1.808,-1.528c0.768,-0.368 1.648,-0.552 2.64,-0.552c0.832,0 1.56,0.136 2.184,0.408c0.624,0.272 1.109,0.656 1.456,1.152c0.347,0.496 0.52,1.08 0.52,1.752c0,0.608 -0.128,1.179 -0.384,1.712c-0.256,0.533 -0.752,1.141 -1.488,1.824l-2.576,2.432l4.816,0Z" style="fill-rule:nonzero;"/><g><circle cx="1478.87" cy="394.781" r="7.087"/><circle cx="1532.09" cy="394.781" r="7.087"/></g><path d="M1526.37,312.814c-1.141,0 -2.173,-0.248 -3.096,-0.744c-0.923,-0.496 -1.648,-1.184 -2.176,-2.064c-0.528,-0.88 -0.792,-1.874 -0.792,-2.984c-0,-1.109 0.264,-2.104 0.792,-2.984c0.528,-0.88 1.253,-1.568 2.176,-2.064c0.923,-0.496 1.96,-0.744 3.112,-0.744c0.971,0 1.848,0.171 2.632,0.512c0.784,0.342 1.443,0.832 1.976,1.472l-1.664,1.536c-0.757,-0.874 -1.696,-1.312 -2.816,-1.312c-0.693,0 -1.312,0.152 -1.856,0.456c-0.544,0.304 -0.968,0.728 -1.272,1.272c-0.304,0.544 -0.456,1.163 -0.456,1.856c-0,0.694 0.152,1.312 0.456,1.856c0.304,0.544 0.728,0.968 1.272,1.272c0.544,0.304 1.163,0.456 1.856,0.456c1.12,0 2.059,-0.442 2.816,-1.328l1.664,1.536c-0.533,0.651 -1.195,1.147 -1.984,1.488c-0.789,0.342 -1.669,0.512 -2.64,0.512Z" style="fill-rule:nonzero;"/><path d="M1537.92,312.814c-1.163,0 -2.211,-0.25 -3.144,-0.752c-0.933,-0.501 -1.664,-1.192 -2.192,-2.072c-0.528,-0.88 -0.792,-1.869 -0.792,-2.968c-0,-1.098 0.264,-2.088 0.792,-2.968c0.528,-0.88 1.259,-1.57 2.192,-2.072c0.933,-0.501 1.981,-0.752 3.144,-0.752c1.163,0 2.208,0.251 3.136,0.752c0.928,0.502 1.659,1.192 2.192,2.072c0.533,0.88 0.8,1.87 0.8,2.968c-0,1.099 -0.267,2.088 -0.8,2.968c-0.533,0.88 -1.264,1.571 -2.192,2.072c-0.928,0.502 -1.973,0.752 -3.136,0.752Zm-0,-2.208c0.661,0 1.259,-0.152 1.792,-0.456c0.533,-0.304 0.952,-0.728 1.256,-1.272c0.304,-0.544 0.456,-1.162 0.456,-1.856c-0,-0.693 -0.152,-1.312 -0.456,-1.856c-0.304,-0.544 -0.723,-0.968 -1.256,-1.272c-0.533,-0.304 -1.131,-0.456 -1.792,-0.456c-0.661,0 -1.259,0.152 -1.792,0.456c-0.533,0.304 -0.952,0.728 -1.256,1.272c-0.304,0.544 -0.456,1.163 -0.456,1.856c-0,0.694 0.152,1.312 0.456,1.856c0.304,0.544 0.723,0.968 1.256,1.272c0.533,0.304 1.131,0.456 1.792,0.456Z" style="fill-rule:nonzero;"/><path d="M1556.19,312.622l-0.016,-6.72l-3.296,5.536l-1.168,0l-3.28,-5.392l-0,6.576l-2.432,0l-0,-11.2l2.144,0l4.192,6.96l4.128,-6.96l2.128,0l0.032,11.2l-2.432,0Z" style="fill-rule:nonzero;"/><path d="M1448.54,389.517l2.592,0l-0,9.088l5.616,0l-0,2.112l-8.208,0l-0,-11.2Z" style="fill-rule:nonzero;"/><path d="M1465.86,398.605l-0,2.112l-8.464,0l-0,-1.68l4.32,-4.08c0.458,-0.437 0.768,-0.813 0.928,-1.128c0.16,-0.315 0.24,-0.627 0.24,-0.936c-0,-0.448 -0.152,-0.792 -0.456,-1.032c-0.304,-0.24 -0.75,-0.36 -1.336,-0.36c-0.491,0 -0.934,0.093 -1.328,0.28c-0.395,0.187 -0.726,0.467 -0.992,0.84l-1.888,-1.216c0.437,-0.651 1.04,-1.16 1.808,-1.528c0.768,-0.368 1.648,-0.552 2.64,-0.552c0.832,0 1.56,0.136 2.184,0.408c0.624,0.272 1.109,0.656 1.456,1.152c0.346,0.496 0.52,1.08 0.52,1.752c-0,0.608 -0.128,1.179 -0.384,1.712c-0.256,0.533 -0.752,1.141 -1.488,1.824l-2.576,2.432l4.816,0Z" style="fill-rule:nonzero;"/><path d="M1546.94,389.517l2.592,0l0,9.088l5.616,0l0,2.112l-8.208,0l0,-11.2Z" style="fill-rule:nonzero;"/><path d="M1559.68,389.517l0,11.2l-2.592,0l0,-9.12l-2.24,0l0,-2.08l4.832,0Z" style="fill-rule:nonzero;"/><g><circle cx="1207.97" cy="174.294" r="42.947" style="fill:none;stroke:#000;stroke-width:5px;"/><path d="M1178.02,144.343l59.9,59.901" style="fill:none;stroke:#000;stroke-width:5px;"/><path d="M1178.02,204.244l59.9,-59.901" style="fill:none;stroke:#000;stroke-width:5px;"/></g><g><circle cx="1406" cy="174.294" r="42.947" style="fill:none;stroke:#000;stroke-width:5px;"/><path d="M1376.05,144.343l59.901,59.901" style="fill:none;stroke:#000;stroke-width:5px;"/><path d="M1376.05,204.244l59.901,-59.901" style="fill:none;stroke:#000;stroke-width:5px;"/></g><path d="M1108.49,299.6l0,-27.084l-144.672,0" style="fill:none;stroke:#000;stroke-width:5px;"/><path d="M1397.24,216.869l-0,12.755c7.758,2.864 6.668,12.94 -0,15.413l-0,9.974l-433.43,0" style="fill:none;stroke:#000;stroke-width:5px;"/><path d="M559.762,216.869l0,12.755c7.758,2.864 6.668,12.94 0,15.413l0,9.974l-433.429,0" style="fill:none;stroke:#000;stroke-width:5px;"/><g><path d="M1286.23,255.044l39.035,-0" style="fill:none;stroke:#000;stroke-width:1px;"/><path d="M1286.23,237.539l39.035,-0" style="fill:none;stroke:#000;stroke-width:1px;"/></g><path d="M1505.48,299.6l-0,-62.061l-288.375,-0" style="fill:none;stroke:#000;stroke-width:5px;"/><path d="M1217.11,237.539l-0,-20.67" style="fill:none;stroke:#000;stroke-width:5px;"/><path d="M1108.46,306.686l-26.61,88.095l0,117.147l450.214,-0l-0,-117.147" style="fill:none;stroke:#000;stroke-width:5px;"/><path d="M1135.1,394.781l0,70.525l343.774,0l0,-70.525" style="fill:none;stroke:#000;stroke-width:5px;"/><path d="M1478.87,394.781l26.61,-88.095" style="fill:none;stroke:#000;stroke-width:5px;"/><path d="M1414.75,237.539l-0,-20.67" style="fill:none;stroke:#000;stroke-width:5px;"/><path d="M1199.6,255.044l-0,-38.175" style="fill:none;stroke:#000;stroke-width:5px;"/></svg>